<mxfile host="app.diagrams.net" modified="2022-10-27T08:50:11.038Z" agent="5.0 (Windows NT 10.0; Win64; x64) AppleWebKit/537.36 (KHTML, like Gecko) Chrome/106.0.0.0 Safari/537.36 Edg/106.0.1370.52" etag="m83KajGWV_i1Y_UVHCP-" version="20.5.1" type="github">
  <diagram id="rNQqwzguPgap47EaqaKk" name="第 1 页">
    <mxGraphModel dx="734" dy="475" grid="1" gridSize="10" guides="1" tooltips="1" connect="1" arrows="1" fold="1" page="1" pageScale="1" pageWidth="827" pageHeight="1169" math="0" shadow="0">
      <root>
        <mxCell id="0" />
        <mxCell id="1" parent="0" />
        <mxCell id="3Pd0n_S_bEbfvFBjcKVi-2" value="Bag&amp;nbsp;" style="rounded=1;whiteSpace=wrap;html=1;" vertex="1" parent="1">
          <mxGeometry x="387" y="60" width="120" height="60" as="geometry" />
        </mxCell>
        <mxCell id="3Pd0n_S_bEbfvFBjcKVi-3" value="Bag Value" style="rounded=1;whiteSpace=wrap;html=1;" vertex="1" parent="1">
          <mxGeometry x="387" y="120" width="120" height="60" as="geometry" />
        </mxCell>
        <mxCell id="3Pd0n_S_bEbfvFBjcKVi-4" value="Bag + current item" style="rounded=1;whiteSpace=wrap;html=1;" vertex="1" parent="1">
          <mxGeometry x="170" y="280" width="180" height="60" as="geometry" />
        </mxCell>
        <mxCell id="3Pd0n_S_bEbfvFBjcKVi-5" value="Bag value + current item value" style="rounded=1;whiteSpace=wrap;html=1;" vertex="1" parent="1">
          <mxGeometry x="170" y="340" width="180" height="60" as="geometry" />
        </mxCell>
        <mxCell id="3Pd0n_S_bEbfvFBjcKVi-6" value="Bag&amp;nbsp;" style="rounded=1;whiteSpace=wrap;html=1;" vertex="1" parent="1">
          <mxGeometry x="547" y="280" width="120" height="60" as="geometry" />
        </mxCell>
        <mxCell id="3Pd0n_S_bEbfvFBjcKVi-7" value="Bag Value" style="rounded=1;whiteSpace=wrap;html=1;" vertex="1" parent="1">
          <mxGeometry x="547" y="340" width="120" height="60" as="geometry" />
        </mxCell>
        <mxCell id="3Pd0n_S_bEbfvFBjcKVi-8" value="&lt;font style=&quot;font-size: 14px;&quot;&gt;For current item of index i&lt;/font&gt;" style="text;html=1;strokeColor=none;fillColor=none;align=center;verticalAlign=middle;whiteSpace=wrap;rounded=0;" vertex="1" parent="1">
          <mxGeometry x="140" y="80" width="230" height="30" as="geometry" />
        </mxCell>
        <mxCell id="3Pd0n_S_bEbfvFBjcKVi-9" value="&lt;font style=&quot;font-size: 14px;&quot;&gt;Pick current item of index i&lt;/font&gt;" style="text;html=1;strokeColor=none;fillColor=none;align=center;verticalAlign=middle;whiteSpace=wrap;rounded=0;" vertex="1" parent="1">
          <mxGeometry x="110" y="210" width="230" height="30" as="geometry" />
        </mxCell>
        <mxCell id="3Pd0n_S_bEbfvFBjcKVi-10" value="&lt;font style=&quot;font-size: 14px;&quot;&gt;Not to pick current item of index i&lt;/font&gt;" style="text;html=1;strokeColor=none;fillColor=none;align=center;verticalAlign=middle;whiteSpace=wrap;rounded=0;" vertex="1" parent="1">
          <mxGeometry x="550" y="210" width="230" height="30" as="geometry" />
        </mxCell>
        <mxCell id="3Pd0n_S_bEbfvFBjcKVi-11" value="" style="endArrow=classic;html=1;rounded=0;fontSize=14;entryX=0.064;entryY=0.094;entryDx=0;entryDy=0;exitX=0.75;exitY=1;exitDx=0;exitDy=0;strokeWidth=7;strokeColor=#999999;entryPerimeter=0;" edge="1" parent="1" source="3Pd0n_S_bEbfvFBjcKVi-3" target="3Pd0n_S_bEbfvFBjcKVi-6">
          <mxGeometry width="50" height="50" relative="1" as="geometry">
            <mxPoint x="450" y="240" as="sourcePoint" />
            <mxPoint x="500" y="190" as="targetPoint" />
          </mxGeometry>
        </mxCell>
        <mxCell id="3Pd0n_S_bEbfvFBjcKVi-12" value="" style="endArrow=classic;html=1;rounded=0;fontSize=14;entryX=1;entryY=0;entryDx=0;entryDy=0;strokeWidth=7;strokeColor=#82b366;exitX=0.25;exitY=1;exitDx=0;exitDy=0;fillColor=#d5e8d4;" edge="1" parent="1" source="3Pd0n_S_bEbfvFBjcKVi-3" target="3Pd0n_S_bEbfvFBjcKVi-4">
          <mxGeometry width="50" height="50" relative="1" as="geometry">
            <mxPoint x="440" y="200" as="sourcePoint" />
            <mxPoint x="488" y="290" as="targetPoint" />
          </mxGeometry>
        </mxCell>
      </root>
    </mxGraphModel>
  </diagram>
</mxfile>
